<mxfile host="app.diagrams.net" agent="Mozilla/5.0 (Macintosh; Intel Mac OS X 10_15_7) AppleWebKit/537.36 (KHTML, like Gecko) Chrome/128.0.0.0 Safari/537.36" version="24.7.10">
  <diagram name="第 1 页" id="2uirAZzMmBYE6n4_2M24">
    <mxGraphModel dx="1754" dy="1010" grid="1" gridSize="10" guides="1" tooltips="1" connect="1" arrows="1" fold="1" page="1" pageScale="1" pageWidth="827" pageHeight="1169" math="0" shadow="0">
      <root>
        <mxCell id="0" />
        <mxCell id="1" parent="0" />
        <mxCell id="WIxWtnOLiRQ8IsVY14mY-1" value="LLM-as-a-Behavior-Classify Prompt" style="swimlane;rounded=1;align=left;fillColor=#B3B3B3;strokeWidth=2;fontSize=14;" vertex="1" parent="1">
          <mxGeometry x="370" y="490" width="1030" height="720" as="geometry" />
        </mxCell>
        <mxCell id="WIxWtnOLiRQ8IsVY14mY-3" value="&lt;div&gt;&lt;span style=&quot;background-color: initial;&quot;&gt;You are a code expert,&amp;nbsp;&lt;/span&gt;&lt;span style=&quot;background-color: initial;&quot;&gt;your task is to&amp;nbsp;&lt;/span&gt;make a judgment&lt;span style=&quot;background-color: initial;&quot;&gt;&amp;nbsp;the intent and difficulty level of the question for the QA pair and to determine the information that is to be the main reference for answering the question.&lt;/span&gt;&lt;/div&gt;&lt;div&gt;Standards for determining the intent of a question:&lt;/div&gt;&lt;div&gt;The possible intents of a multi-turn dialogue question are as follow, please directly output the category to which the question belongs, and only one category should be output, for example: Question: Generate a Fibonacci sequence that sums up to three numbers. The intent of this question is code generation, that is &quot;intent_type&quot;:&quot;&lt;span style=&quot;text-align: center; text-wrap: nowrap;&quot;&gt;code generate&lt;/span&gt;&quot;.&lt;/div&gt;&lt;div&gt;- C&lt;span style=&quot;text-align: center; text-wrap: nowrap;&quot;&gt;ode Edit&lt;/span&gt;: Add, delete and change the existing code, for example: code optimization, code simplification;&lt;/div&gt;&lt;div&gt;- C&lt;span style=&quot;text-align: center; text-wrap: nowrap;&quot;&gt;ode Generate&lt;/span&gt;: New generation to meet certain requirements of the code, for example: generation of fast row;&lt;/div&gt;&lt;div&gt;- Code Generic QA: General R&amp;amp;D knowledge or code knowledge of the problem, for example: the use of vscode;&lt;/div&gt;&lt;div&gt;- C&lt;span style=&quot;text-align: center; text-wrap: nowrap;&quot;&gt;ode Explain&lt;/span&gt;: Explanation or introduction to the code , for example: explain the code;&lt;/div&gt;&lt;div&gt;- Comment Generate: Comment&amp;nbsp;of the code, for example: add comments to this code;&lt;/div&gt;&lt;div&gt;- C&lt;span style=&quot;text-align: center; text-wrap: nowrap;&quot;&gt;ode Fix&lt;/span&gt;: B&lt;span style=&quot;background-color: initial;&quot;&gt;ug fixes to the code, for example: please fix the code;&lt;/span&gt;&lt;/div&gt;&lt;div&gt;&lt;span style=&quot;background-color: initial;&quot;&gt;&lt;br&gt;&lt;/span&gt;&lt;/div&gt;&lt;div&gt;Standards for question difficulty level:&lt;/div&gt;&lt;div&gt;&lt;div&gt;- Elementary: These questions usually deal with basic programming concepts such as variables, data types, control structures (loops, conditional statements) etc. They usually require only a basic knowledge of the programming language to answer.&lt;/div&gt;&lt;div&gt;- Intermediate: These questions may involve more complex topics such as functions, object-oriented programming, data structures (e.g., lists, dictionaries, trees), exception handling, and basic algorithms. Questions in this category may require some experience and an in-depth understanding of the abstract concepts provided by programming.&lt;/div&gt;&lt;div&gt;- Advanced: These problems may involve more complex topics such as concurrent and multithreaded programming, memory management, operating system-related topics, network programming, design patterns, advanced algorithms, and so on. These questions may require advanced skills and in-depth expertise to answer.&lt;/div&gt;&lt;div&gt;- Expert: These types of questions may involve specialized areas of knowledge or tools, such as specific software architectures, frameworks, libraries, cloud computing, artificial intelligence, machine learning, big data processing, and so on.&lt;/div&gt;&lt;/div&gt;&lt;div&gt;&lt;br&gt;&lt;/div&gt;&lt;div&gt;&lt;div&gt;&lt;span style=&quot;background-color: initial;&quot;&gt;Standards&lt;/span&gt;&amp;nbsp;for the response reference area:&lt;/div&gt;&lt;div&gt;- Only the names of the following references can be output, the names cannot be created out of thin air or modified: &#39;Historical Dialog&#39;, &#39;Selected Code&#39;, &#39;Context&#39;, &#39;Question&#39;, &#39;Error Messages&#39;, &#39;General Knowledge&#39;;&lt;/div&gt;&lt;div&gt;- If more than one reference is made at the same time, the name of the main referenced section is output;&lt;/div&gt;&lt;div&gt;What&#39;s in the reference area for the question:&lt;/div&gt;&lt;div&gt;&lt;span style=&quot;background-color: initial;&quot;&gt;Historical Dialog&lt;/span&gt;:&lt;/div&gt;&lt;div&gt;{history}&lt;/div&gt;&lt;div&gt;Selected Code:&lt;/div&gt;&lt;div&gt;{current}&lt;/div&gt;&lt;div&gt;&lt;span style=&quot;background-color: initial;&quot;&gt;Context&lt;/span&gt;:&lt;/div&gt;&lt;div&gt;{c&lt;span style=&quot;background-color: initial;&quot;&gt;ontext&lt;/span&gt;&lt;span style=&quot;background-color: initial;&quot;&gt;}&lt;/span&gt;&lt;/div&gt;&lt;div&gt;Error Messages:&lt;/div&gt;&lt;div&gt;{error_code}&lt;/div&gt;&lt;div&gt;Question:&lt;/div&gt;&lt;div&gt;{question}&lt;/div&gt;&lt;/div&gt;&lt;div&gt;&lt;br&gt;&lt;/div&gt;&lt;div&gt;Please return the intent, the&amp;nbsp;&lt;span style=&quot;background-color: initial;&quot;&gt;difficulty level&lt;/span&gt;&lt;span style=&quot;background-color: initial;&quot;&gt;&amp;nbsp;and the&amp;nbsp;&lt;/span&gt;&lt;span style=&quot;background-color: initial;&quot;&gt;reference area for the question, as well as&amp;nbsp;&lt;/span&gt;&lt;span style=&quot;background-color: initial;&quot;&gt;its reasoning&amp;nbsp;as a json&amp;nbsp;with 6 keys:&lt;/span&gt;&lt;/div&gt;&lt;div&gt;&quot;intent_reason&quot;&lt;/div&gt;&lt;div&gt;&quot;intent&quot;&lt;/div&gt;&lt;div&gt;&quot;difficulty_level_reason&quot;&lt;/div&gt;&lt;div&gt;&quot;difficulty_level&quot;&lt;/div&gt;&lt;div&gt;&quot;&lt;span style=&quot;background-color: initial;&quot;&gt;reference_area_reason&lt;/span&gt;&lt;span style=&quot;background-color: initial;&quot;&gt;&quot;&lt;/span&gt;&lt;/div&gt;&lt;div&gt;&lt;span style=&quot;background-color: initial;&quot;&gt;&quot;&lt;/span&gt;&lt;span style=&quot;background-color: initial;&quot;&gt;reference area&lt;/span&gt;&lt;span style=&quot;background-color: initial;&quot;&gt;&quot;&lt;/span&gt;&lt;/div&gt;&lt;div&gt;&lt;br&gt;&lt;/div&gt;&lt;div&gt;Json format of intent reasoning, intent, difficulty level reasoning, difficulty level,&amp;nbsp;&lt;span style=&quot;background-color: initial;&quot;&gt;reference area reasoning,&amp;nbsp;&lt;/span&gt;&lt;span style=&quot;background-color: initial;&quot;&gt;reference area&lt;/span&gt;&lt;span style=&quot;background-color: initial;&quot;&gt;:&lt;/span&gt;&lt;/div&gt;" style="text;html=1;align=left;verticalAlign=middle;whiteSpace=wrap;rounded=0;" vertex="1" parent="1">
          <mxGeometry x="380" y="560" width="1010" height="600" as="geometry" />
        </mxCell>
      </root>
    </mxGraphModel>
  </diagram>
</mxfile>
